<?xml version="1.0" encoding="UTF-8" standalone="no"?>
<!-- Created with Inkscape (http://www.inkscape.org/) -->
<svg
   xmlns:dc="http://purl.org/dc/elements/1.1/"
   xmlns:cc="http://web.resource.org/cc/"
   xmlns:rdf="http://www.w3.org/1999/02/22-rdf-syntax-ns#"
   xmlns:svg="http://www.w3.org/2000/svg"
   xmlns="http://www.w3.org/2000/svg"
   xmlns:sodipodi="http://inkscape.sourceforge.net/DTD/sodipodi-0.dtd"
   xmlns:inkscape="http://www.inkscape.org/namespaces/inkscape"
   width="744.09448819"
   height="1052.3622047"
   id="svg2"
   sodipodi:version="0.32"
   inkscape:version="0.42"
   inkscape:export-filename="/Users/vargol/Source/oxidizer/icons/genepool.png"
   inkscape:export-xdpi="90.000000"
   inkscape:export-ydpi="90.000000"
   sodipodi:docbase="/Users/vargol/Source/oxidizer/icons"
   sodipodi:docname="genepool.svg">
  <defs
     id="defs4" />
  <sodipodi:namedview
     id="base"
     pagecolor="#ffffff"
     bordercolor="#666666"
     borderopacity="1.0"
     inkscape:pageopacity="0.0"
     inkscape:pageshadow="2"
     inkscape:zoom="0.17500000"
     inkscape:cx="187.68412"
     inkscape:cy="758.50251"
     inkscape:document-units="px"
     inkscape:current-layer="layer1"
     showguides="false"
     showgrid="true"
     inkscape:window-width="1641"
     inkscape:window-height="1006"
     inkscape:window-x="153"
     inkscape:window-y="135" />
  <metadata
     id="metadata7">
    <rdf:RDF>
      <cc:Work
         rdf:about="">
        <dc:format>image/svg+xml</dc:format>
        <dc:type
           rdf:resource="http://purl.org/dc/dcmitype/StillImage" />
      </cc:Work>
    </rdf:RDF>
  </metadata>
  <g
     inkscape:label="Layer 1"
     inkscape:groupmode="layer"
     id="layer1">
    <g
       id="g2818"
       transform="matrix(0.680851,0.000000,0.000000,0.680851,34.48664,99.37090)">
      <path
         id="path1310"
         d="M 120.88351,203.82656 C 115.76552,203.82656 111.60741,207.97908 111.60741,213.09707 C 111.60741,213.17983 111.61642,213.26041 111.61858,213.34265 L 111.60183,213.34265 L 111.60183,243.44809 C 111.60182,243.45372 111.60183,243.45921 111.60183,243.46484 C 111.60183,248.58283 115.75435,252.73535 120.87234,252.73535 C 125.99033,252.73535 130.14844,248.58283 130.14844,243.46484 C 130.14844,243.45921 130.14845,243.45372 130.14844,243.44809 L 130.15960,243.44809 L 130.15960,213.34265 L 130.14286,213.34265 C 130.14502,213.26041 130.15402,213.17983 130.15402,213.09707 C 130.15402,207.97908 126.00150,203.82656 120.88351,203.82656 z "
         style="fill:#729fcf;fill-opacity:1.0000000;stroke:#000000;stroke-width:5.0000000;stroke-linecap:butt;stroke-linejoin:bevel;stroke-miterlimit:4.0000000;stroke-dasharray:none;stroke-opacity:1.0000000" />
      <path
         id="path2057"
         d="M 146.98718,204.00516 C 141.86919,204.00516 137.71108,208.15768 137.71108,213.27567 C 137.71108,213.35843 137.72009,213.43901 137.72225,213.52125 L 137.70550,213.52125 L 137.70550,243.62670 C 137.70549,243.63232 137.70550,243.63781 137.70550,243.64344 C 137.70550,248.76143 141.85803,252.91395 146.97601,252.91395 C 152.09400,252.91395 156.25211,248.76143 156.25211,243.64344 C 156.25211,243.63781 156.25212,243.63232 156.25211,243.62670 L 156.26327,243.62670 L 156.26327,213.52125 L 156.24653,213.52125 C 156.24869,213.43901 156.25769,213.35843 156.25769,213.27567 C 156.25769,208.15768 152.10517,204.00516 146.98718,204.00516 z "
         style="fill:#ef2929;fill-opacity:1.0000000;stroke:#000000;stroke-width:5.0000000;stroke-linecap:butt;stroke-linejoin:bevel;stroke-miterlimit:4.0000000;stroke-dasharray:none;stroke-opacity:1.0000000" />
      <path
         id="path2059"
         d="M 119.83981,259.01430 C 114.72182,259.01430 110.56372,263.16682 110.56372,268.28481 C 110.56372,268.36757 110.57272,268.44814 110.57488,268.53039 L 110.55814,268.53039 L 110.55814,298.63583 C 110.55813,298.64146 110.55814,298.64695 110.55814,298.65258 C 110.55814,303.77057 114.71066,307.92309 119.82865,307.92309 C 124.94664,307.92309 129.10474,303.77057 129.10474,298.65258 C 129.10474,298.64695 129.10475,298.64146 129.10474,298.63583 L 129.11591,298.63583 L 129.11591,268.53039 L 129.09916,268.53039 C 129.10132,268.44814 129.11032,268.36757 129.11032,268.28481 C 129.11032,263.16682 124.95780,259.01430 119.83981,259.01430 z "
         style="fill:#ef2929;fill-opacity:1.0000000;stroke:#000000;stroke-width:5.0000000;stroke-linecap:butt;stroke-linejoin:bevel;stroke-miterlimit:4.0000000;stroke-dasharray:none;stroke-opacity:1.0000000" />
      <path
         id="path2061"
         d="M 147.16578,258.65709 C 142.04779,258.65709 137.88968,262.80962 137.88968,267.92761 C 137.88968,268.01037 137.89869,268.09094 137.90085,268.17318 L 137.88410,268.17318 L 137.88410,298.27863 C 137.88409,298.28426 137.88410,298.28974 137.88410,298.29537 C 137.88410,303.41336 142.03663,307.56589 147.15461,307.56589 C 152.27260,307.56589 156.43071,303.41336 156.43071,298.29537 C 156.43071,298.28974 156.43072,298.28426 156.43071,298.27863 L 156.44187,298.27863 L 156.44187,268.17318 L 156.42513,268.17318 C 156.42729,268.09094 156.43629,268.01037 156.43629,267.92761 C 156.43629,262.80962 152.28377,258.65709 147.16578,258.65709 z "
         style="fill:#729fcf;fill-opacity:1.0000000;stroke:#000000;stroke-width:5.0000000;stroke-linecap:butt;stroke-linejoin:bevel;stroke-miterlimit:4.0000000;stroke-dasharray:none;stroke-opacity:1.0000000" />
      <path
         transform="matrix(0.115353,0.000000,0.000000,0.115353,125.0566,199.6867)"
         d="M 125.71429 490.21933 A 49.285713 49.285713 0 1 1  27.142860,490.21933 A 49.285713 49.285713 0 1 1  125.71429 490.21933 z"
         sodipodi:ry="49.285713"
         sodipodi:rx="49.285713"
         sodipodi:cy="490.21933"
         sodipodi:cx="76.428574"
         id="path2063"
         style="fill:#ffffff;fill-opacity:1.0000000;stroke:#000000;stroke-width:30.000000;stroke-linecap:butt;stroke-linejoin:bevel;stroke-miterlimit:4.0000000;stroke-dasharray:none;stroke-opacity:1.0000000"
         sodipodi:type="arc" />
    </g>
    <g
       id="g2825"
       transform="matrix(0.680851,0.000000,0.000000,0.680851,133.8513,100.0103)">
      <path
         id="path2827"
         d="M 120.88351,203.82656 C 115.76552,203.82656 111.60741,207.97908 111.60741,213.09707 C 111.60741,213.17983 111.61642,213.26041 111.61858,213.34265 L 111.60183,213.34265 L 111.60183,243.44809 C 111.60182,243.45372 111.60183,243.45921 111.60183,243.46484 C 111.60183,248.58283 115.75435,252.73535 120.87234,252.73535 C 125.99033,252.73535 130.14844,248.58283 130.14844,243.46484 C 130.14844,243.45921 130.14845,243.45372 130.14844,243.44809 L 130.15960,243.44809 L 130.15960,213.34265 L 130.14286,213.34265 C 130.14502,213.26041 130.15402,213.17983 130.15402,213.09707 C 130.15402,207.97908 126.00150,203.82656 120.88351,203.82656 z "
         style="fill:#729fcf;fill-opacity:1.0000000;stroke:#000000;stroke-width:5.0000000;stroke-linecap:butt;stroke-linejoin:bevel;stroke-miterlimit:4.0000000;stroke-dasharray:none;stroke-opacity:1.0000000" />
      <path
         id="path2829"
         d="M 146.98718,204.00516 C 141.86919,204.00516 137.71108,208.15768 137.71108,213.27567 C 137.71108,213.35843 137.72009,213.43901 137.72225,213.52125 L 137.70550,213.52125 L 137.70550,243.62670 C 137.70549,243.63232 137.70550,243.63781 137.70550,243.64344 C 137.70550,248.76143 141.85803,252.91395 146.97601,252.91395 C 152.09400,252.91395 156.25211,248.76143 156.25211,243.64344 C 156.25211,243.63781 156.25212,243.63232 156.25211,243.62670 L 156.26327,243.62670 L 156.26327,213.52125 L 156.24653,213.52125 C 156.24869,213.43901 156.25769,213.35843 156.25769,213.27567 C 156.25769,208.15768 152.10517,204.00516 146.98718,204.00516 z "
         style="fill:#ef2929;fill-opacity:1.0000000;stroke:#000000;stroke-width:5.0000000;stroke-linecap:butt;stroke-linejoin:bevel;stroke-miterlimit:4.0000000;stroke-dasharray:none;stroke-opacity:1.0000000" />
      <path
         id="path2831"
         d="M 119.83981,259.01430 C 114.72182,259.01430 110.56372,263.16682 110.56372,268.28481 C 110.56372,268.36757 110.57272,268.44814 110.57488,268.53039 L 110.55814,268.53039 L 110.55814,298.63583 C 110.55813,298.64146 110.55814,298.64695 110.55814,298.65258 C 110.55814,303.77057 114.71066,307.92309 119.82865,307.92309 C 124.94664,307.92309 129.10474,303.77057 129.10474,298.65258 C 129.10474,298.64695 129.10475,298.64146 129.10474,298.63583 L 129.11591,298.63583 L 129.11591,268.53039 L 129.09916,268.53039 C 129.10132,268.44814 129.11032,268.36757 129.11032,268.28481 C 129.11032,263.16682 124.95780,259.01430 119.83981,259.01430 z "
         style="fill:#ef2929;fill-opacity:1.0000000;stroke:#000000;stroke-width:5.0000000;stroke-linecap:butt;stroke-linejoin:bevel;stroke-miterlimit:4.0000000;stroke-dasharray:none;stroke-opacity:1.0000000" />
      <path
         id="path2833"
         d="M 147.16578,258.65709 C 142.04779,258.65709 137.88968,262.80962 137.88968,267.92761 C 137.88968,268.01037 137.89869,268.09094 137.90085,268.17318 L 137.88410,268.17318 L 137.88410,298.27863 C 137.88409,298.28426 137.88410,298.28974 137.88410,298.29537 C 137.88410,303.41336 142.03663,307.56589 147.15461,307.56589 C 152.27260,307.56589 156.43071,303.41336 156.43071,298.29537 C 156.43071,298.28974 156.43072,298.28426 156.43071,298.27863 L 156.44187,298.27863 L 156.44187,268.17318 L 156.42513,268.17318 C 156.42729,268.09094 156.43629,268.01037 156.43629,267.92761 C 156.43629,262.80962 152.28377,258.65709 147.16578,258.65709 z "
         style="fill:#729fcf;fill-opacity:1.0000000;stroke:#000000;stroke-width:5.0000000;stroke-linecap:butt;stroke-linejoin:bevel;stroke-miterlimit:4.0000000;stroke-dasharray:none;stroke-opacity:1.0000000" />
      <path
         transform="matrix(0.115353,0.000000,0.000000,0.115353,125.0566,199.6867)"
         d="M 125.71429 490.21933 A 49.285713 49.285713 0 1 1  27.142860,490.21933 A 49.285713 49.285713 0 1 1  125.71429 490.21933 z"
         sodipodi:ry="49.285713"
         sodipodi:rx="49.285713"
         sodipodi:cy="490.21933"
         sodipodi:cx="76.428574"
         id="path2835"
         style="fill:#ffffff;fill-opacity:1.0000000;stroke:#000000;stroke-width:30.000000;stroke-linecap:butt;stroke-linejoin:bevel;stroke-miterlimit:4.0000000;stroke-dasharray:none;stroke-opacity:1.0000000"
         sodipodi:type="arc" />
    </g>
    <g
       id="g2837"
       transform="matrix(0.680851,0.000000,0.000000,0.680851,84.14918,99.70259)">
      <path
         id="path2839"
         d="M 120.88351,203.82656 C 115.76552,203.82656 111.60741,207.97908 111.60741,213.09707 C 111.60741,213.17983 111.61642,213.26041 111.61858,213.34265 L 111.60183,213.34265 L 111.60183,243.44809 C 111.60182,243.45372 111.60183,243.45921 111.60183,243.46484 C 111.60183,248.58283 115.75435,252.73535 120.87234,252.73535 C 125.99033,252.73535 130.14844,248.58283 130.14844,243.46484 C 130.14844,243.45921 130.14845,243.45372 130.14844,243.44809 L 130.15960,243.44809 L 130.15960,213.34265 L 130.14286,213.34265 C 130.14502,213.26041 130.15402,213.17983 130.15402,213.09707 C 130.15402,207.97908 126.00150,203.82656 120.88351,203.82656 z "
         style="fill:#729fcf;fill-opacity:1.0000000;stroke:#000000;stroke-width:5.0000000;stroke-linecap:butt;stroke-linejoin:bevel;stroke-miterlimit:4.0000000;stroke-dasharray:none;stroke-opacity:1.0000000" />
      <path
         id="path2841"
         d="M 146.98718,204.00516 C 141.86919,204.00516 137.71108,208.15768 137.71108,213.27567 C 137.71108,213.35843 137.72009,213.43901 137.72225,213.52125 L 137.70550,213.52125 L 137.70550,243.62670 C 137.70549,243.63232 137.70550,243.63781 137.70550,243.64344 C 137.70550,248.76143 141.85803,252.91395 146.97601,252.91395 C 152.09400,252.91395 156.25211,248.76143 156.25211,243.64344 C 156.25211,243.63781 156.25212,243.63232 156.25211,243.62670 L 156.26327,243.62670 L 156.26327,213.52125 L 156.24653,213.52125 C 156.24869,213.43901 156.25769,213.35843 156.25769,213.27567 C 156.25769,208.15768 152.10517,204.00516 146.98718,204.00516 z "
         style="fill:#ef2929;fill-opacity:1.0000000;stroke:#000000;stroke-width:5.0000000;stroke-linecap:butt;stroke-linejoin:bevel;stroke-miterlimit:4.0000000;stroke-dasharray:none;stroke-opacity:1.0000000" />
      <path
         id="path2843"
         d="M 119.83981,259.01430 C 114.72182,259.01430 110.56372,263.16682 110.56372,268.28481 C 110.56372,268.36757 110.57272,268.44814 110.57488,268.53039 L 110.55814,268.53039 L 110.55814,298.63583 C 110.55813,298.64146 110.55814,298.64695 110.55814,298.65258 C 110.55814,303.77057 114.71066,307.92309 119.82865,307.92309 C 124.94664,307.92309 129.10474,303.77057 129.10474,298.65258 C 129.10474,298.64695 129.10475,298.64146 129.10474,298.63583 L 129.11591,298.63583 L 129.11591,268.53039 L 129.09916,268.53039 C 129.10132,268.44814 129.11032,268.36757 129.11032,268.28481 C 129.11032,263.16682 124.95780,259.01430 119.83981,259.01430 z "
         style="fill:#ef2929;fill-opacity:1.0000000;stroke:#000000;stroke-width:5.0000000;stroke-linecap:butt;stroke-linejoin:bevel;stroke-miterlimit:4.0000000;stroke-dasharray:none;stroke-opacity:1.0000000" />
      <path
         id="path2845"
         d="M 147.16578,258.65709 C 142.04779,258.65709 137.88968,262.80962 137.88968,267.92761 C 137.88968,268.01037 137.89869,268.09094 137.90085,268.17318 L 137.88410,268.17318 L 137.88410,298.27863 C 137.88409,298.28426 137.88410,298.28974 137.88410,298.29537 C 137.88410,303.41336 142.03663,307.56589 147.15461,307.56589 C 152.27260,307.56589 156.43071,303.41336 156.43071,298.29537 C 156.43071,298.28974 156.43072,298.28426 156.43071,298.27863 L 156.44187,298.27863 L 156.44187,268.17318 L 156.42513,268.17318 C 156.42729,268.09094 156.43629,268.01037 156.43629,267.92761 C 156.43629,262.80962 152.28377,258.65709 147.16578,258.65709 z "
         style="fill:#729fcf;fill-opacity:1.0000000;stroke:#000000;stroke-width:5.0000000;stroke-linecap:butt;stroke-linejoin:bevel;stroke-miterlimit:4.0000000;stroke-dasharray:none;stroke-opacity:1.0000000" />
      <path
         transform="matrix(0.115353,0.000000,0.000000,0.115353,125.0566,199.6867)"
         d="M 125.71429 490.21933 A 49.285713 49.285713 0 1 1  27.142860,490.21933 A 49.285713 49.285713 0 1 1  125.71429 490.21933 z"
         sodipodi:ry="49.285713"
         sodipodi:rx="49.285713"
         sodipodi:cy="490.21933"
         sodipodi:cx="76.428574"
         id="path2847"
         style="fill:#ffffff;fill-opacity:1.0000000;stroke:#000000;stroke-width:30.000000;stroke-linecap:butt;stroke-linejoin:bevel;stroke-miterlimit:4.0000000;stroke-dasharray:none;stroke-opacity:1.0000000"
         sodipodi:type="arc" />
    </g>
    <path
       style="fill:#ef2929;fill-opacity:1.0000000;stroke:#000000;stroke-width:3.4042554;stroke-linecap:butt;stroke-linejoin:bevel;stroke-miterlimit:4.0000000;stroke-dasharray:none;stroke-opacity:1.0000000"
       d="M 139.97882,142.78582 C 136.49423,142.78582 133.66318,145.61307 133.66318,149.09765 C 133.66318,149.15400 133.66931,149.20887 133.67078,149.26486 L 133.65938,149.26486 L 133.65938,169.76218 C 133.65937,169.76601 133.65938,169.76975 133.65938,169.77358 C 133.65938,173.25817 136.48663,176.08542 139.97122,176.08542 C 143.45581,176.08542 146.28686,173.25817 146.28686,169.77358 C 146.28686,169.76975 146.28687,169.76601 146.28686,169.76218 L 146.29446,169.76218 L 146.29446,149.26486 L 146.28306,149.26486 C 146.28453,149.20887 146.29066,149.15400 146.29066,149.09765 C 146.29066,145.61307 143.46341,142.78582 139.97882,142.78582 z "
       id="path2851" />
    <path
       style="fill:#ef2929;fill-opacity:1.0000000;stroke:#000000;stroke-width:3.4042554;stroke-linecap:butt;stroke-linejoin:bevel;stroke-miterlimit:4.0000000;stroke-dasharray:none;stroke-opacity:1.0000000"
       d="M 157.75153,142.90742 C 154.26694,142.90742 151.43589,145.73467 151.43589,149.21925 C 151.43589,149.27560 151.44203,149.33047 151.44350,149.38646 L 151.43209,149.38646 L 151.43209,169.88379 C 151.43208,169.88761 151.43209,169.89135 151.43209,169.89518 C 151.43209,173.37977 154.25935,176.20702 157.74393,176.20702 C 161.22852,176.20702 164.05957,173.37977 164.05957,169.89518 C 164.05957,169.89135 164.05958,169.88761 164.05957,169.88379 L 164.06717,169.88379 L 164.06717,149.38646 L 164.05577,149.38646 C 164.05724,149.33047 164.06337,149.27560 164.06337,149.21925 C 164.06337,145.73467 161.23612,142.90742 157.75153,142.90742 z "
       id="path2853" />
    <path
       style="fill:#ef2929;fill-opacity:1.0000000;stroke:#000000;stroke-width:3.4042554;stroke-linecap:butt;stroke-linejoin:bevel;stroke-miterlimit:4.0000000;stroke-dasharray:none;stroke-opacity:1.0000000"
       d="M 139.26822,180.36045 C 135.78363,180.36045 132.95258,183.18770 132.95258,186.67229 C 132.95258,186.72864 132.95871,186.78349 132.96018,186.83949 L 132.94878,186.83949 L 132.94878,207.33681 C 132.94877,207.34065 132.94878,207.34438 132.94878,207.34822 C 132.94878,210.83281 135.77603,213.66005 139.26062,213.66005 C 142.74521,213.66005 145.57625,210.83281 145.57625,207.34822 C 145.57625,207.34438 145.57626,207.34065 145.57625,207.33681 L 145.58386,207.33681 L 145.58386,186.83949 L 145.57246,186.83949 C 145.57393,186.78349 145.58005,186.72864 145.58005,186.67229 C 145.58005,183.18770 142.75281,180.36045 139.26822,180.36045 z "
       id="path2855" />
    <path
       style="fill:#ef2929;fill-opacity:1.0000000;stroke:#000000;stroke-width:3.4042554;stroke-linecap:butt;stroke-linejoin:bevel;stroke-miterlimit:4.0000000;stroke-dasharray:none;stroke-opacity:1.0000000"
       d="M 157.87313,180.11724 C 154.38854,180.11724 151.55749,182.94450 151.55749,186.42909 C 151.55749,186.48544 151.56363,186.54029 151.56510,186.59628 L 151.55369,186.59628 L 151.55369,207.09361 C 151.55368,207.09745 151.55369,207.10118 151.55369,207.10501 C 151.55369,210.58960 154.38095,213.41685 157.86553,213.41685 C 161.35012,213.41685 164.18117,210.58960 164.18117,207.10501 C 164.18117,207.10118 164.18118,207.09745 164.18117,207.09361 L 164.18877,207.09361 L 164.18877,186.59628 L 164.17737,186.59628 C 164.17884,186.54029 164.18497,186.48544 164.18497,186.42909 C 164.18497,182.94450 161.35772,180.11724 157.87313,180.11724 z "
       id="path2857" />
    <path
       sodipodi:type="arc"
       style="fill:#ffffff;fill-opacity:1.0000000;stroke:#000000;stroke-width:30.000000;stroke-linecap:butt;stroke-linejoin:bevel;stroke-miterlimit:4.0000000;stroke-dasharray:none;stroke-opacity:1.0000000"
       id="path2859"
       sodipodi:cx="76.428574"
       sodipodi:cy="490.21933"
       sodipodi:rx="49.285713"
       sodipodi:ry="49.285713"
       d="M 125.71429 490.21933 A 49.285713 49.285713 0 1 1  27.142860,490.21933 A 49.285713 49.285713 0 1 1  125.71429 490.21933 z"
       transform="matrix(7.853822e-2,0.000000,0.000000,7.853822e-2,142.8201,139.9672)" />
    <path
       style="fill:#729fcf;fill-opacity:1.0000000;stroke:#000000;stroke-width:3.4042554;stroke-linecap:butt;stroke-linejoin:bevel;stroke-miterlimit:4.0000000;stroke-dasharray:none;stroke-opacity:1.0000000"
       d="M 189.64137,143.11753 C 186.15678,143.11753 183.32573,145.94478 183.32573,149.42937 C 183.32573,149.48571 183.33187,149.54058 183.33334,149.59657 L 183.32193,149.59657 L 183.32193,170.09389 C 183.32192,170.09772 183.32193,170.10146 183.32193,170.10530 C 183.32193,173.58988 186.14918,176.41713 189.63377,176.41713 C 193.11836,176.41713 195.94941,173.58988 195.94941,170.10530 C 195.94941,170.10146 195.94942,170.09772 195.94941,170.09389 L 195.95701,170.09389 L 195.95701,149.59657 L 195.94561,149.59657 C 195.94708,149.54058 195.95321,149.48571 195.95321,149.42937 C 195.95321,145.94478 193.12596,143.11753 189.64137,143.11753 z "
       id="path2863" />
    <path
       style="fill:#729fcf;fill-opacity:1.0000000;stroke:#000000;stroke-width:3.4042554;stroke-linecap:butt;stroke-linejoin:bevel;stroke-miterlimit:4.0000000;stroke-dasharray:none;stroke-opacity:1.0000000"
       d="M 207.41409,143.23913 C 203.92950,143.23913 201.09844,146.06638 201.09844,149.55097 C 201.09844,149.60731 201.10458,149.66218 201.10605,149.71817 L 201.09464,149.71817 L 201.09464,170.21550 C 201.09464,170.21932 201.09464,170.22306 201.09464,170.22690 C 201.09464,173.71148 203.92190,176.53873 207.40648,176.53873 C 210.89107,176.53873 213.72212,173.71148 213.72212,170.22690 C 213.72212,170.22306 213.72213,170.21932 213.72212,170.21550 L 213.72972,170.21550 L 213.72972,149.71817 L 213.71832,149.71817 C 213.71980,149.66218 213.72592,149.60731 213.72592,149.55097 C 213.72592,146.06638 210.89868,143.23913 207.41409,143.23913 z "
       id="path2865" />
    <path
       style="fill:#729fcf;fill-opacity:1.0000000;stroke:#000000;stroke-width:3.4042554;stroke-linecap:butt;stroke-linejoin:bevel;stroke-miterlimit:4.0000000;stroke-dasharray:none;stroke-opacity:1.0000000"
       d="M 188.93077,180.69216 C 185.44618,180.69216 182.61513,183.51941 182.61513,187.00400 C 182.61513,187.06035 182.62126,187.11520 182.62273,187.17120 L 182.61133,187.17120 L 182.61133,207.66852 C 182.61133,207.67236 182.61133,207.67610 182.61133,207.67993 C 182.61133,211.16452 185.43858,213.99177 188.92317,213.99177 C 192.40776,213.99177 195.23881,211.16452 195.23881,207.67993 C 195.23881,207.67610 195.23881,207.67236 195.23881,207.66852 L 195.24641,207.66852 L 195.24641,187.17120 L 195.23501,187.17120 C 195.23648,187.11520 195.24261,187.06035 195.24261,187.00400 C 195.24261,183.51941 192.41536,180.69216 188.93077,180.69216 z "
       id="path2867" />
    <path
       style="fill:#729fcf;fill-opacity:1.0000000;stroke:#000000;stroke-width:3.4042554;stroke-linecap:butt;stroke-linejoin:bevel;stroke-miterlimit:4.0000000;stroke-dasharray:none;stroke-opacity:1.0000000"
       d="M 207.53569,180.44896 C 204.05110,180.44896 201.22004,183.27621 201.22004,186.76080 C 201.22004,186.81715 201.22618,186.87200 201.22765,186.92800 L 201.21624,186.92800 L 201.21624,207.42532 C 201.21624,207.42916 201.21624,207.43289 201.21624,207.43672 C 201.21624,210.92131 204.04350,213.74857 207.52808,213.74857 C 211.01267,213.74857 213.84372,210.92131 213.84372,207.43672 C 213.84372,207.43289 213.84373,207.42916 213.84372,207.42532 L 213.85132,207.42532 L 213.85132,186.92800 L 213.83992,186.92800 C 213.84140,186.87200 213.84752,186.81715 213.84752,186.76080 C 213.84752,183.27621 211.02028,180.44896 207.53569,180.44896 z "
       id="path2869" />
    <path
       sodipodi:type="arc"
       style="fill:#ffffff;fill-opacity:1.0000000;stroke:#000000;stroke-width:30.000000;stroke-linecap:butt;stroke-linejoin:bevel;stroke-miterlimit:4.0000000;stroke-dasharray:none;stroke-opacity:1.0000000"
       id="path2871"
       sodipodi:cx="76.428574"
       sodipodi:cy="490.21933"
       sodipodi:rx="49.285713"
       sodipodi:ry="49.285713"
       d="M 125.71429 490.21933 A 49.285713 49.285713 0 1 1  27.142860,490.21933 A 49.285713 49.285713 0 1 1  125.71429 490.21933 z"
       transform="matrix(7.853822e-2,0.000000,0.000000,7.853822e-2,192.4826,140.2989)" />
  </g>
</svg>
