<?xml version="1.0" encoding="UTF-8" standalone="no"?>
<!-- Created with Inkscape (http://www.inkscape.org/) -->
<svg
   xmlns:dc="http://purl.org/dc/elements/1.1/"
   xmlns:cc="http://web.resource.org/cc/"
   xmlns:rdf="http://www.w3.org/1999/02/22-rdf-syntax-ns#"
   xmlns:svg="http://www.w3.org/2000/svg"
   xmlns="http://www.w3.org/2000/svg"
   xmlns:sodipodi="http://sodipodi.sourceforge.net/DTD/sodipodi-0.dtd"
   xmlns:inkscape="http://www.inkscape.org/namespaces/inkscape"
   height="1052.3622047"
   id="svg6323"
   inkscape:version="0.44"
   sodipodi:docbase="/Users/vargol/Documents"
   sodipodi:docname="oxidizer_dna.svg"
   sodipodi:version="0.32"
   width="744.09448819">
  <metadata
     id="metadata3108">
    <rdf:RDF>
      <cc:Work
         rdf:about="">
        <dc:title>Double helix</dc:title>
        <dc:description>Schematic double helix</dc:description>
        <dc:subject>
          <rdf:Bag>
            <rdf:li>dna</rdf:li>
            <rdf:li>genetics</rdf:li>
            <rdf:li>gene</rdf:li>
            <rdf:li>helix</rdf:li>
            <rdf:li>biology</rdf:li>
            <rdf:li>study</rdf:li>
          </rdf:Bag>
        </dc:subject>
        <dc:publisher>
          <cc:Agent
             rdf:about="http://www.openclipart.org/">
            <dc:title>Open Clip Art Library</dc:title>
          </cc:Agent>
        </dc:publisher>
        <dc:creator>
          <cc:Agent
             rdf:about="http://anthony.liekens.net">
            <dc:title>Anthony Liekens</dc:title>
          </cc:Agent>
        </dc:creator>
        <dc:rights>
          <cc:Agent
             rdf:about="http://anthony.liekens.net">
            <dc:title>Anthony Liekens</dc:title>
          </cc:Agent>
        </dc:rights>
        <dc:date />
        <dc:format>image/svg+xml</dc:format>
        <dc:type
           rdf:resource="http://purl.org/dc/dcmitype/StillImage" />
        <cc:license
           rdf:resource="http://web.resource.org/cc/PublicDomain" />
        <dc:language>en</dc:language>
      </cc:Work>
      <cc:License
         rdf:about="http://web.resource.org/cc/PublicDomain">
        <cc:permits
           rdf:resource="http://web.resource.org/cc/Reproduction" />
        <cc:permits
           rdf:resource="http://web.resource.org/cc/Distribution" />
        <cc:permits
           rdf:resource="http://web.resource.org/cc/DerivativeWorks" />
      </cc:License>
    </rdf:RDF>
  </metadata>
  <defs
     id="defs6325" />
  <sodipodi:namedview
     bordercolor="#ffffff"
     borderopacity="0.0"
     id="base"
     inkscape:current-layer="layer1"
     inkscape:cx="-9.8224498"
     inkscape:cy="1722.8867"
     inkscape:document-units="px"
     inkscape:guide-bbox="true"
     inkscape:pageopacity="0.0"
     inkscape:pageshadow="0"
     inkscape:window-height="693"
     inkscape:window-width="826"
     inkscape:window-x="568"
     inkscape:window-y="196"
     inkscape:zoom="0.088388348"
     pagecolor="#ffffff"
     showguides="true" />
  <g
     id="layer1"
     inkscape:groupmode="layer"
     inkscape:label="Layer 1">
    <path
       style="fill:#a40000;fill-opacity:1;stroke:black;stroke-width:10;stroke-miterlimit:4;stroke-dasharray:none;stroke-opacity:1"
       d="M -929.112,-671.49552 C -928.8865,-664.68495 -928.91329,-657.87125 -928.862,-651.05802 C -929.40706,-642.41668 -929.1026,-632.81203 -922.26825,-626.49552 C -901.07045,-610.12372 -875.85568,-600.42282 -852.01825,-588.40177 L -852.01825,-588.55802 C -825.54424,-574.60691 -794.60361,-565.91187 -775.11201,-541.90177 C -775.33751,-548.71235 -775.31072,-555.52604 -775.36201,-562.33927 C -774.81695,-570.98061 -775.1214,-580.58526 -781.95576,-586.90177 C -803.15357,-603.27357 -828.36833,-612.97447 -852.20575,-624.99552 L -852.20575,-624.83927 C -878.67997,-638.79066 -909.62018,-647.48514 -929.112,-671.49552 z "
       id="path8553" />
    <path
       style="fill:#204a87;fill-opacity:1;stroke:black;stroke-width:10;stroke-miterlimit:4;stroke-dasharray:none;stroke-opacity:1"
       d="M -775.24262,-430.88556 C -775.46812,-437.69613 -775.44133,-444.50984 -775.49262,-451.32307 C -774.94756,-459.96441 -775.25202,-469.56906 -782.08637,-475.88556 C -803.28417,-492.25736 -828.49894,-501.95826 -852.33636,-513.97931 L -852.33636,-513.82306 C -878.81038,-527.77418 -909.75101,-536.46921 -929.24261,-560.47933 C -929.01711,-553.66874 -929.0439,-546.85504 -928.99261,-540.04181 C -929.53767,-531.40047 -929.23322,-521.79582 -922.39886,-515.47931 C -901.20105,-499.10751 -875.98629,-489.40662 -852.14886,-477.38556 L -852.14886,-477.54181 C -825.67464,-463.59042 -794.73445,-454.89594 -775.24262,-430.88556 z "
       id="path8572" />
    <path
       style="fill:#ef2929;fill-opacity:1;stroke:black;stroke-width:10;stroke-miterlimit:4;stroke-dasharray:none;stroke-opacity:1"
       d="M -928.83559,-428.87601 C -928.61009,-435.68658 -928.63688,-442.50028 -928.58559,-449.31351 C -929.13065,-457.95485 -928.82619,-467.5595 -921.99184,-473.87601 C -900.79404,-490.24781 -875.57927,-499.94871 -851.74184,-511.96976 L -851.74184,-511.81351 C -825.26783,-525.76462 -794.3272,-534.45965 -774.8356,-558.46976 C -775.0611,-551.65918 -775.03431,-544.84549 -775.0856,-538.03226 C -774.54054,-529.39091 -774.84499,-519.78627 -781.67935,-513.46976 C -802.87716,-497.09796 -828.09192,-487.39706 -851.92934,-475.37601 L -851.92934,-475.53226 C -878.40356,-461.58087 -909.34377,-452.88639 -928.83559,-428.87601 z "
       id="path8570"
       inkscape:transform-center-x="37.620486" />
    <path
       style="fill:#729fcf;fill-opacity:1;stroke:black;stroke-width:10;stroke-miterlimit:4;stroke-dasharray:none;stroke-opacity:1"
       d="M -775.51903,-673.50509 C -775.74453,-666.69452 -775.71774,-659.88082 -775.76903,-653.06759 C -775.22397,-644.42625 -775.52843,-634.8216 -782.36278,-628.50509 C -803.56058,-612.13329 -828.77535,-602.43239 -852.61278,-590.41134 L -852.61278,-590.56759 C -879.08679,-576.61648 -910.02742,-567.92145 -929.51902,-543.91133 C -929.29352,-550.72191 -929.32031,-557.5356 -929.26902,-564.34883 C -929.81408,-572.99019 -929.50963,-582.59483 -922.67527,-588.91134 C -901.47746,-605.28314 -876.2627,-614.98404 -852.42528,-627.00509 L -852.42528,-626.84884 C -825.95106,-640.80023 -795.01086,-649.49471 -775.51903,-673.50509 z "
       id="path8574"
       inkscape:transform-center-x="-37.620486" />
  </g>
</svg>
